<?xml version="1.0" standalone="no"?>
<!DOCTYPE svg PUBLIC "-//W3C//DTD SVG 20010904//EN"
 "http://www.w3.org/TR/2001/REC-SVG-20010904/DTD/svg10.dtd">
<svg version="1.0" xmlns="http://www.w3.org/2000/svg"
 width="310.000000pt" height="310.000000pt" viewBox="0 0 310.000000 310.000000"
 preserveAspectRatio="xMidYMid meet">
<metadata>
Created by potrace 1.14, written by Peter Selinger 2001-2017
</metadata>
<g transform="translate(0.000000,310.000000) scale(0.100000,-0.100000)"
fill="#000000" stroke="none">
<path d="M0 1550 l0 -1550 1550 0 1550 0 0 1550 0 1550 -1550 0 -1550 0 0
-1550z m893 425 c62 -54 131 -154 125 -183 -5 -30 -66 -52 -143 -52 -91 0
-135 13 -185 55 -23 19 -52 35 -63 36 -81 3 -136 7 -158 13 -19 6 -28 3 -32
-8 -3 -8 -7 -128 -8 -266 -1 -222 1 -253 15 -269 21 -24 89 -41 157 -41 29 0
68 -6 87 -12 30 -11 35 -11 49 7 19 25 11 89 -14 117 -10 11 -39 31 -64 44
-55 27 -77 68 -63 116 16 55 45 67 177 72 138 5 179 -4 224 -49 l33 -33 0
-186 c0 -117 -4 -194 -11 -210 -15 -33 -75 -56 -145 -56 -58 0 -85 9 -121 42
l-22 20 -37 -28 c-37 -28 -40 -29 -187 -32 -82 -2 -160 -1 -173 2 -33 9 -137
102 -184 165 l-40 55 0 256 0 257 38 49 c35 45 57 68 135 137 41 35 85 36 117
2 27 -29 42 -31 61 -8 31 36 69 43 224 40 l151 -2 57 -50z m1512 41 c50 -21
63 -49 71 -158 7 -108 16 -123 63 -113 34 7 51 25 81 85 34 68 121 181 148
191 13 5 59 9 103 9 94 0 139 -17 139 -54 0 -34 -33 -107 -60 -131 -12 -11
-33 -40 -46 -65 -14 -25 -40 -64 -59 -88 -34 -43 -55 -96 -55 -142 0 -21 8
-28 42 -40 39 -14 45 -20 70 -82 15 -37 40 -87 56 -110 16 -24 35 -61 42 -83
7 -22 21 -57 32 -79 23 -44 17 -56 -41 -75 -46 -15 -200 -14 -231 2 -16 8 -38
39 -61 87 -20 41 -43 81 -52 89 -9 7 -47 16 -83 19 -77 6 -80 3 -89 -78 -9
-77 -20 -99 -60 -116 -40 -16 -144 -18 -197 -4 -70 20 -68 7 -68 471 0 387 1
418 18 439 30 37 172 53 237 26z m-841 -209 l33 -26 35 25 c40 28 92 39 142
30 61 -12 192 -138 231 -223 23 -49 21 -277 -3 -319 -40 -72 -65 -103 -128
-159 -57 -50 -73 -59 -115 -63 -62 -6 -90 2 -129 34 l-31 27 -22 -20 c-37 -34
-63 -43 -122 -43 -76 0 -115 19 -192 92 -94 90 -103 113 -103 284 0 78 3 157
7 175 8 45 153 193 203 208 60 18 155 7 194 -22z"/>
<path d="M1538 1649 c-31 -21 -58 -49 -62 -61 -12 -45 -7 -273 7 -289 13 -17
111 -89 120 -89 3 0 22 22 42 50 l36 50 -3 147 c-3 144 -4 149 -31 185 -15 20
-34 39 -41 41 -7 3 -38 -12 -68 -34z"/>
</g>
</svg>
